<!-- SVG Icons for ProductivePro Landing Page -->
<svg xmlns="http://www.w3.org/2000/svg" style="display: none;">
    
    <!-- Productivity Timer Icon -->
    <symbol id="timer-icon" viewBox="0 0 24 24" fill="none" stroke="currentColor" stroke-width="2" stroke-linecap="round" stroke-linejoin="round">
        <circle cx="12" cy="12" r="10"/>
        <polyline points="12,6 12,12 16,14"/>
    </symbol>
    
    <!-- Shield/Blocking Icon -->
    <symbol id="shield-icon" viewBox="0 0 24 24" fill="none" stroke="currentColor" stroke-width="2" stroke-linecap="round" stroke-linejoin="round">
        <path d="M12 22s8-4 8-10V5l-8-3-8 3v7c0 6 8 10 8 10z"/>
        <line x1="9" y1="9" x2="15" y2="15"/>
        <line x1="15" y1="9" x2="9" y2="15"/>
    </symbol>
    
    <!-- Whitelist Icon -->
    <symbol id="list-icon" viewBox="0 0 24 24" fill="none" stroke="currentColor" stroke-width="2" stroke-linecap="round" stroke-linejoin="round">
        <line x1="8" y1="6" x2="21" y2="6"/>
        <line x1="8" y1="12" x2="21" y2="12"/>
        <line x1="8" y1="18" x2="21" y2="18"/>
        <line x1="3" y1="6" x2="3.01" y2="6"/>
        <line x1="3" y1="12" x2="3.01" y2="12"/>
        <line x1="3" y1="18" x2="3.01" y2="18"/>
    </symbol>
    
    <!-- Schedule/Calendar Icon -->
    <symbol id="calendar-icon" viewBox="0 0 24 24" fill="none" stroke="currentColor" stroke-width="2" stroke-linecap="round" stroke-linejoin="round">
        <rect x="3" y="4" width="18" height="18" rx="2" ry="2"/>
        <line x1="16" y1="2" x2="16" y2="6"/>
        <line x1="8" y1="2" x2="8" y2="6"/>
        <line x1="3" y1="10" x2="21" y2="10"/>
        <rect x="7" y="12" width="3" height="3"/>
    </symbol>
    
    <!-- Analytics/Insights Icon -->
    <symbol id="trending-up-icon" viewBox="0 0 24 24" fill="none" stroke="currentColor" stroke-width="2" stroke-linecap="round" stroke-linejoin="round">
        <polyline points="23,6 13.5,15.5 8.5,10.5 1,18"/>
        <polyline points="17,6 23,6 23,12"/>
    </symbol>
    
    <!-- Brain/AI Icon -->
    <symbol id="brain-icon" viewBox="0 0 24 24" fill="none" stroke="currentColor" stroke-width="2" stroke-linecap="round" stroke-linejoin="round">
        <path d="M9.5 2A2.5 2.5 0 0 1 12 4.5v15a2.5 2.5 0 0 1-4.96.44 2.5 2.5 0 0 1-2.96-3.08 3 3 0 0 1-.34-5.58 2.5 2.5 0 0 1 1.32-4.24 2.5 2.5 0 0 1 1.98-3A2.5 2.5 0 0 1 9.5 2Z"/>
        <path d="M14.5 2A2.5 2.5 0 0 0 12 4.5v15a2.5 2.5 0 0 0 4.96.44 2.5 2.5 0 0 0 2.96-3.08 3 3 0 0 0 .34-5.58 2.5 2.5 0 0 0-1.32-4.24 2.5 2.5 0 0 0-1.98-3A2.5 2.5 0 0 0 14.5 2Z"/>
    </symbol>
    
    <!-- Trophy/Leaderboard Icon -->
    <symbol id="trophy-icon" viewBox="0 0 24 24" fill="none" stroke="currentColor" stroke-width="2" stroke-linecap="round" stroke-linejoin="round">
        <line x1="8" y1="21" x2="16" y2="21"/>
        <line x1="12" y1="17" x2="12" y2="21"/>
        <path d="M5.7 8C5.1 7.7 4.6 7.2 4.2 6.6 3.8 6 3.7 5.3 3.8 4.6 4 3.9 4.4 3.3 5 2.9 5.6 2.5 6.3 2.4 7 2.6L8 3"/>
        <path d="M18.3 8c.6-.3 1.1-.8 1.5-1.4.4-.6.5-1.3.4-2-.2-.7-.6-1.3-1.2-1.7-.6-.4-1.3-.5-2-.3L16 3"/>
        <path d="M7 8v13a2 2 0 0 0 2 2h6a2 2 0 0 0 2-2V8"/>
        <path d="M7 8c0-2.2 1.8-4 4-4h2c2.2 0 4 1.8 4 4"/>
    </symbol>
    
    <!-- Lightning/Zap Icon -->
    <symbol id="zap-icon" viewBox="0 0 24 24" fill="none" stroke="currentColor" stroke-width="2" stroke-linecap="round" stroke-linejoin="round">
        <polygon points="13,2 3,14 12,14 11,22 21,10 12,10 13,2"/>
    </symbol>
    
    <!-- Check Circle Icon -->
    <symbol id="check-circle-icon" viewBox="0 0 24 24" fill="none" stroke="currentColor" stroke-width="2" stroke-linecap="round" stroke-linejoin="round">
        <path d="M22 11.08V12a10 10 0 1 1-5.93-9.14"/>
        <polyline points="22,4 12,14.01 9,11.01"/>
    </symbol>
    
    <!-- X Circle Icon -->
    <symbol id="x-circle-icon" viewBox="0 0 24 24" fill="none" stroke="currentColor" stroke-width="2" stroke-linecap="round" stroke-linejoin="round">
        <circle cx="12" cy="12" r="10"/>
        <line x1="15" y1="9" x2="9" y2="15"/>
        <line x1="9" y1="9" x2="15" y2="15"/>
    </symbol>
    
    <!-- Info Circle Icon -->
    <symbol id="info-circle-icon" viewBox="0 0 24 24" fill="none" stroke="currentColor" stroke-width="2" stroke-linecap="round" stroke-linejoin="round">
        <circle cx="12" cy="12" r="10"/>
        <line x1="12" y1="16" x2="12" y2="12"/>
        <line x1="12" y1="8" x2="12.01" y2="8"/>
    </symbol>
    
    <!-- Alert Triangle Icon -->
    <symbol id="alert-triangle-icon" viewBox="0 0 24 24" fill="none" stroke="currentColor" stroke-width="2" stroke-linecap="round" stroke-linejoin="round">
        <path d="M10.29 3.86L1.82 18a2 2 0 0 0 1.71 3h16.94a2 2 0 0 0 1.71-3L13.71 3.86a2 2 0 0 0-3.42 0z"/>
        <line x1="12" y1="9" x2="12" y2="13"/>
        <line x1="12" y1="17" x2="12.01" y2="17"/>
    </symbol>
    
    <!-- Menu Icon -->
    <symbol id="menu-icon" viewBox="0 0 24 24" fill="none" stroke="currentColor" stroke-width="2" stroke-linecap="round" stroke-linejoin="round">
        <line x1="3" y1="6" x2="21" y2="6"/>
        <line x1="3" y1="12" x2="21" y2="12"/>
        <line x1="3" y1="18" x2="21" y2="18"/>
    </symbol>
    
    <!-- X Icon -->
    <symbol id="x-icon" viewBox="0 0 24 24" fill="none" stroke="currentColor" stroke-width="2" stroke-linecap="round" stroke-linejoin="round">
        <line x1="18" y1="6" x2="6" y2="18"/>
        <line x1="6" y1="6" x2="18" y2="18"/>
    </symbol>
    
    <!-- Social Media Icons -->
    <symbol id="twitter-icon" viewBox="0 0 24 24" fill="none" stroke="currentColor" stroke-width="2" stroke-linecap="round" stroke-linejoin="round">
        <path d="M23 3a10.9 10.9 0 0 1-3.14 1.53 4.48 4.48 0 0 0-7.86 3v1A10.66 10.66 0 0 1 3 4s-4 9 5 13a11.64 11.64 0 0 1-7 2c9 5 20 0 20-11.5a4.5 4.5 0 0 0-.08-.83A7.72 7.72 0 0 0 23 3z"/>
    </symbol>
    
    <symbol id="linkedin-icon" viewBox="0 0 24 24" fill="none" stroke="currentColor" stroke-width="2" stroke-linecap="round" stroke-linejoin="round">
        <path d="M16 8a6 6 0 0 1 6 6v7h-4v-7a2 2 0 0 0-2-2 2 2 0 0 0-2 2v7h-4v-7a6 6 0 0 1 6-6z"/>
        <rect x="2" y="9" width="4" height="12"/>
        <circle cx="4" cy="4" r="2"/>
    </symbol>
    
    <symbol id="github-icon" viewBox="0 0 24 24" fill="none" stroke="currentColor" stroke-width="2" stroke-linecap="round" stroke-linejoin="round">
        <path d="M9 19c-5 1.5-5-2.5-7-3m14 6v-3.87a3.37 3.37 0 0 0-.94-2.61c3.14-.35 6.44-1.54 6.44-7A5.44 5.44 0 0 0 20 4.77 5.07 5.07 0 0 0 19.91 1S18.73.65 16 2.48a13.38 13.38 0 0 0-7 0C6.27.65 5.09 1 5.09 1A5.07 5.07 0 0 0 5 4.77a5.44 5.44 0 0 0-1.5 3.78c0 5.42 3.3 6.61 6.44 7A3.37 3.37 0 0 0 9 18.13V22"/>
    </symbol>
    
    <symbol id="mail-icon" viewBox="0 0 24 24" fill="none" stroke="currentColor" stroke-width="2" stroke-linecap="round" stroke-linejoin="round">
        <path d="M4 4h16c1.1 0 2 .9 2 2v12c0 1.1-.9 2-2 2H4c-1.1 0-2-.9-2-2V6c0-1.1.9-2 2-2z"/>
        <polyline points="22,6 12,13 2,6"/>
    </symbol>
</svg>
